<svg xmlns="http://www.w3.org/2000/svg" version="1.1" xmlns:xlink="http://www.w3.org/1999/xlink" xmlns:svgjs="http://svgjs.com/svgjs" width="512" height="512" x="0" y="0" viewBox="0 0 24 24" style="enable-background:new 0 0 512 512" xml:space="preserve" class=""><g transform="matrix(1.1900000000000002,0,0,1.1900000000000002,-2.2800000000000047,-2.2800000000000047)"><g data-name="Flat Color"><circle cx="12" cy="12" r="10" fill="#e63946" data-original="#e63946" class=""></circle><path fill="#edebea" d="m13.06 12 2.47-2.47a.75.75 0 0 0-1.06-1.06L12 10.94 9.53 8.47a.75.75 0 0 0-1.06 1.06L10.94 12l-2.47 2.47a.75.75 0 0 0 0 1.06.75.75 0 0 0 1.06 0L12 13.06l2.47 2.47a.75.75 0 0 0 1.06 0 .75.75 0 0 0 0-1.06z" data-original="#edebea"></path></g></g></svg>