<svg xmlns="http://www.w3.org/2000/svg" version="1.1" xmlns:xlink="http://www.w3.org/1999/xlink" xmlns:svgjs="http://svgjs.com/svgjs" width="512" height="512" x="0" y="0" viewBox="0 0 490.674 490.674" style="enable-background:new 0 0 512 512" xml:space="preserve" class=""><g><circle cx="394.667" cy="426.671" r="53.333" style="" fill="#455a64" data-original="#455a64" class=""></circle><circle cx="181.333" cy="426.671" r="53.333" style="" fill="#455a64" data-original="#455a64" class=""></circle><path d="M488 78.276a10.665 10.665 0 0 0-8-3.605H96c-5.891-.001-10.668 4.773-10.669 10.664 0 .717.072 1.433.216 2.136l42.667 213.333a10.667 10.667 0 0 0 10.453 8.533c.469.031.939.031 1.408 0l320-42.667a10.666 10.666 0 0 0 9.173-9.259l21.333-170.667A10.661 10.661 0 0 0 488 78.276z" style="" fill="#ffc107" data-original="#ffc107" class=""></path><path d="M181.333 266.671a10.666 10.666 0 0 1-10.517-8.917l-21.333-128c-.791-5.838 3.3-11.211 9.138-12.002a10.667 10.667 0 0 1 11.897 8.504l21.333 128c.963 5.808-2.961 11.298-8.768 12.267-.578.099-1.163.149-1.75.148zM234.667 256.004A10.667 10.667 0 0 1 224 246.297l-10.667-117.333c-.552-5.865 3.755-11.067 9.621-11.619l.086-.008c5.867-.531 11.053 3.796 11.584 9.663v.001l10.667 117.333c.53 5.867-3.796 11.053-9.663 11.584h-.001l-.96.086zM288 245.337c-5.891 0-10.667-4.776-10.667-10.667V128.004c0-5.891 4.776-10.667 10.667-10.667s10.667 4.776 10.667 10.667v106.667c0 5.891-4.776 10.666-10.667 10.666zM341.333 234.671h-1.195c-5.858-.62-10.104-5.872-9.484-11.731l.012-.109 10.667-96c.692-5.867 5.963-10.093 11.84-9.493 5.855.648 10.077 5.919 9.43 11.775v.001l-10.667 96a10.667 10.667 0 0 1-10.603 9.557zM394.667 224.004a10.667 10.667 0 0 1-10.347-13.248l21.333-85.333c1.293-5.747 7.001-9.358 12.748-8.065 5.747 1.293 9.358 7.001 8.065 12.748a9.897 9.897 0 0 1-.12.48l-21.333 85.333a10.665 10.665 0 0 1-10.346 8.085z" style="" fill="#fafafa" data-original="#fafafa" class=""></path><path d="M437.333 352.004H191.125c-35.558-.082-66.155-25.16-73.216-60.011L65.92 32.004H10.667C4.776 32.004 0 27.228 0 21.337S4.776 10.67 10.667 10.67h64a10.666 10.666 0 0 1 10.453 8.533l53.717 268.587c5.035 24.896 26.888 42.817 52.288 42.88h246.208c5.891 0 10.667 4.776 10.667 10.667s-4.776 10.667-10.667 10.667z" style="" fill="#455a64" data-original="#455a64" class=""></path></g></svg>