<svg xmlns="http://www.w3.org/2000/svg" version="1.1" xmlns:xlink="http://www.w3.org/1999/xlink" xmlns:svgjs="http://svgjs.com/svgjs" width="512" height="512" x="0" y="0" viewBox="0 0 24 24" style="enable-background:new 0 0 512 512" xml:space="preserve" class=""><g transform="matrix(1.1900000000000002,0,0,1.1900000000000002,-2.2800000000000047,-2.2800000000000047)"><g data-name="Flat Color"><path fill="#edebea" d="M6 18V6a4 4 0 0 1 4-4h6l6 6v10a4 4 0 0 1-4 4h-8a4 4 0 0 1-4-4z" data-original="#edebea" class=""></path><path fill="#e1dedd" d="m22 8-6-6v5a1 1 0 0 0 1 1z" data-original="#e1dedd"></path><circle cx="9" cy="15" r="7" fill="#20bf55" data-original="#20bf55" class=""></circle><path fill="#edebea" d="M8.41 17.52a1 1 0 0 1-.7-.28L6 15.56a1 1 0 0 1 0-1.41 1 1 0 0 1 1.42 0l1 1 2.88-2.84a1 1 0 1 1 1.41 1.43l-3.6 3.5a1 1 0 0 1-.7.28z" data-original="#edebea" class=""></path></g></g></svg>