
<svg xmlns="http://www.w3.org/2000/svg" version="1.1" xmlns:xlink="http://www.w3.org/1999/xlink" xmlns:svgjs="http://svgjs.com/svgjs" width="512" height="512" x="0" y="0" viewBox="0 0 512 512" style="enable-background:new 0 0 512 512" xml:space="preserve" class=""><g transform="matrix(0.9100000000000003,0,0,0.9100000000000003,23.039999999999935,33.039999999999935)"><path d="M492 217.969V412c0 44.183-35.817 80-80 80H100c-44.183 0-80-35.817-80-80V100c0-44.183 35.817-80 80-80h194.031" style="stroke-width:40;stroke-linecap:round;stroke-linejoin:round;stroke-miterlimit:10;" fill="none" stroke="#000000" stroke-width="40" stroke-linecap="round" stroke-linejoin="round" stroke-miterlimit="10" data-original="#000000" class=""></path><path d="M126.731 385.269a134.741 134.741 0 0 1 36.848-121.701l217.71-217.71c23.431-23.431 61.421-23.431 84.853 0s23.432 61.421 0 84.853l-217.71 217.71a134.741 134.741 0 0 1-121.701 36.848zM375.433 108.286 347.147 80" style="stroke-width:40;stroke-linecap:round;stroke-linejoin:round;stroke-miterlimit:10;" fill="none" stroke="#000000" stroke-width="40" stroke-linecap="round" stroke-linejoin="round" stroke-miterlimit="10" data-original="#000000" class=""></path></g></svg>
