<svg xmlns="http://www.w3.org/2000/svg" version="1.1" xmlns:xlink="http://www.w3.org/1999/xlink" width="512" height="512" x="0" y="0" viewBox="0 0 512 512" style="enable-background:new 0 0 512 512" xml:space="preserve" class=""><g><linearGradient id="a" x1="42.972" x2="469.039" y1="469.034" y2="42.967" gradientUnits="userSpaceOnUse"><stop offset="0" stop-color="#fdd91d"></stop><stop offset=".05" stop-color="#fdd91d"></stop><stop offset=".497" stop-color="#ec1c24"></stop><stop offset=".95" stop-color="#a43a94"></stop><stop offset="1" stop-color="#a43a94"></stop></linearGradient><path fill="url(#a)" d="M255.993 124.535c-72.593 0-131.453 58.871-131.453 131.463 0 72.607 58.86 131.453 131.453 131.453 72.607 0 131.477-58.846 131.477-131.453 0-72.592-58.87-131.463-131.477-131.463zm0 216.799c-47.12 0-85.336-38.204-85.336-85.336 0-47.131 38.215-85.335 85.336-85.335 47.131 0 85.346 38.204 85.346 85.335s-38.215 85.336-85.346 85.336zm167.381-221.986c0 16.952-13.757 30.709-30.72 30.709-16.962 0-30.72-13.757-30.72-30.709 0-16.959 13.757-30.72 30.72-30.72s30.72 13.761 30.72 30.72zm75.187-31.035c-6.545-16.842-15.298-31.112-29.521-45.346-28.694-28.715-67.952-39.631-107.484-41.421C334.246.284 325.528.005 255.993.005c-69.511 0-78.229.279-105.539 1.541-39.627 1.794-78.84 12.778-107.481 41.42C14.22 71.719 3.355 110.856 1.537 150.459.293 177.769 0 186.477 0 255.998c0 69.522.293 78.243 1.537 105.564 1.826 39.741 12.672 78.73 41.434 107.471 28.758 28.736 67.883 39.618 107.483 41.431 27.31 1.248 36.028 1.53 105.539 1.53 69.536 0 78.254-.283 105.564-1.53 39.692-1.818 78.78-12.709 107.481-41.431 28.682-28.703 39.626-67.956 41.421-107.472 1.248-27.32 1.541-36.042 1.541-105.564s-.293-78.229-1.541-105.539c-1.237-27.255-5.566-45.857-11.898-62.145zm-34.183 271.132c-1.264 27.805-7.724 56.727-27.955 76.983-20.498 20.524-48.99 26.682-76.969 27.958-27.002 1.223-35.088 1.491-103.461 1.491-68.348 0-76.434-.269-103.438-1.491-28.05-1.279-56.497-7.54-76.978-27.955-20.422-20.356-26.707-49.199-27.958-76.987-1.223-26.988-1.491-35.084-1.491-103.447 0-68.348.269-76.444 1.491-103.448 1.247-27.677 7.832-56.811 27.954-76.967 20.402-20.436 49.145-26.689 76.984-27.959 27.002-1.233 35.088-1.491 103.436-1.491 68.363 0 76.459.258 103.462 1.491 28.034 1.279 56.528 7.511 76.965 27.955 20.447 20.454 26.69 49.089 27.958 76.973 1.237 27.002 1.506 35.098 1.506 103.447-.001 68.363-.269 76.459-1.506 103.447z" opacity="1" data-original="url(#a)" class=""></path></g></svg>