<svg xmlns="http://www.w3.org/2000/svg" version="1.1" xmlns:xlink="http://www.w3.org/1999/xlink" xmlns:svgjs="http://svgjs.com/svgjs" width="512" height="512" x="0" y="0" viewBox="0 0 512.024 512.024" style="enable-background:new 0 0 512 512" xml:space="preserve" class=""><g><path d="M464.012 64h-416c-8.832 0-16 7.168-16 16v416c0 5.728 3.04 10.976 7.968 13.856 4.928 2.848 11.008 2.912 15.968.064l103.392-59.104 87.776 58.496a16.132 16.132 0 0 0 17.76 0l87.776-58.496 103.392 59.104a16.107 16.107 0 0 0 7.968 2.08c2.784 0 5.568-.704 8.032-2.144A16.029 16.029 0 0 0 480.012 496V80c0-8.832-7.168-16-16-16z" style="" fill="#eceff1" data-original="#eceff1" class=""></path><path d="M240.012 192h-128c-8.832 0-16-7.168-16-16s7.168-16 16-16h128c8.832 0 16 7.168 16 16s-7.168 16-16 16zM240.012 288h-128c-8.832 0-16-7.168-16-16s7.168-16 16-16h128c8.832 0 16 7.168 16 16s-7.168 16-16 16zM240.012 384h-128c-8.832 0-16-7.168-16-16s7.168-16 16-16h128c8.832 0 16 7.168 16 16s-7.168 16-16 16zM368.012 192h-32c-8.832 0-16-7.168-16-16s7.168-16 16-16h32c8.832 0 16 7.168 16 16s-7.168 16-16 16zM368.012 288h-32c-8.832 0-16-7.168-16-16s7.168-16 16-16h32c8.832 0 16 7.168 16 16s-7.168 16-16 16zM368.012 384h-32c-8.832 0-16-7.168-16-16s7.168-16 16-16h32c8.832 0 16 7.168 16 16s-7.168 16-16 16z" style="" fill="#90a4ae" data-original="#90a4ae" class=""></path><path d="M496.012 0h-480c-8.832 0-16 7.168-16 16v64c0 8.832 7.168 16 16 16h480c8.832 0 16-7.168 16-16V16c0-8.832-7.168-16-16-16z" style="" fill="#455a64" data-original="#455a64"></path></g></svg>