<svg xmlns="http://www.w3.org/2000/svg" version="1.1" xmlns:xlink="http://www.w3.org/1999/xlink" xmlns:svgjs="http://svgjs.com/svgjs" width="512" height="512" x="0" y="0" viewBox="0 0 24 24" style="enable-background:new 0 0 512 512" xml:space="preserve" class=""><g transform="matrix(1.0999999999999992,0,0,1.0999999999999992,-1.1999999284744174,-0.6523489832878045)"><g data-name="Layer 2"><path d="M12 22.25c-1.54 0-8.75-7-8.75-12.7a8.75 8.75 0 1 1 17.5 0c0 5.72-7.21 12.7-8.75 12.7zm0-19.96a7.26 7.26 0 0 0-7.25 7.26c0 4.74 5.91 10.54 7.25 11.17 1.34-.63 7.25-6.43 7.25-11.17A7.26 7.26 0 0 0 12 2.29z" fill="#000000" data-original="#000000" class=""></path><path d="M12 13.75a4.25 4.25 0 1 1 4.25-4.25A4.26 4.26 0 0 1 12 13.75zm0-7a2.75 2.75 0 1 0 2.75 2.75A2.75 2.75 0 0 0 12 6.75z" fill="#000000" data-original="#000000" class=""></path></g></g></svg>
