<svg xmlns="http://www.w3.org/2000/svg" version="1.1" xmlns:xlink="http://www.w3.org/1999/xlink" xmlns:svgjs="http://svgjs.com/svgjs" width="512" height="512" x="0" y="0" viewBox="0 0 24 24" style="enable-background:new 0 0 512 512" xml:space="preserve" class=""><g transform="matrix(1.1900000000000002,0,0,1.1900000000000002,-2.2799999094009404,-2.2800007247924814)"><g data-name="Flat Color"><path fill="#edebea" d="M5 6a2 2 0 0 0-2 2.12l.64 10.13a4 4 0 0 0 4 3.75h8.74a4 4 0 0 0 4-3.75L21 8.12A2 2 0 0 0 19 6z" data-original="#edebea" class=""></path><path fill="#e1dedd" d="M16 10a1 1 0 0 1-1-1V7a3 3 0 0 0-6 0v2a1 1 0 0 1-2 0V7a5 5 0 0 1 10 0v2a1 1 0 0 1-1 1z" data-original="#e1dedd"></path><path fill="#e63946" d="M14 16h-4a1 1 0 0 1 0-2h4a1 1 0 0 1 0 2z" data-original="#e63946"></path></g></g></svg>