
<svg xmlns="http://www.w3.org/2000/svg" version="1.1" xmlns:xlink="http://www.w3.org/1999/xlink" xmlns:svgjs="http://svgjs.com/svgjs" width="512" height="512" x="0" y="0" viewBox="0 0 24 24" style="enable-background:new 0 0 512 512" xml:space="preserve" class=""><g transform="matrix(1.2200000000000004,0,0,1.2200000000000004,-2.640000000000006,-2.640000000000006)"><path d="M10 17.51c.41 0 .75-.34.75-.75V10c0-.41-.34-.75-.75-.75s-.75.34-.75.75v6.76c0 .41.34.75.75.75zM14 17.51c.41 0 .75-.34.75-.75V10c0-.41-.34-.75-.75-.75s-.75.34-.75.75v6.76c0 .41.34.75.75.75z" fill="currentColor"></path><path d="M21 5.25H3c-.41 0-.75.34-.75.75s.34.75.75.75h1.29l.68 11.66c.11 1.87 1.59 3.34 3.37 3.34h7.32c1.78 0 3.26-1.47 3.37-3.34l.68-11.66H21c.41 0 .75-.34.75-.75s-.34-.75-.75-.75zm-3.47 13.07c-.06 1.08-.88 1.93-1.87 1.93H8.34c-.99 0-1.81-.85-1.87-1.93L5.8 6.75h12.41l-.67 11.57zM9 3.75h6c.41 0 .75-.34.75-.75s-.34-.75-.75-.75H9c-.41 0-.75.34-.75.75s.34.75.75.75z" fill="currentColor"></path></g></svg>
